<?xml version="1.0" encoding="utf-8"?>
<!-- Generator: Adobe Illustrator 28.2.0, SVG Export Plug-In . SVG Version: 6.00 Build 0)  -->
<svg version="1.1" id="Layer_1" xmlns="http://www.w3.org/2000/svg" xmlns:xlink="http://www.w3.org/1999/xlink" x="0px" y="0px"
	 viewBox="0 0 1080.7 1080.7" style="enable-background:new 0 0 1080.7 1080.7;" xml:space="preserve">
<style type="text/css">
	.st0{fill:#F97316;}
	.st1{fill:#0D9488;}
</style>
<path class="st0" d="M746.5,814.2c-20,16.3-40,32.8-60.1,49c-20.6,16.5-41.4,32.6-62.1,49c-22.5,17.8-45,35.5-67.4,53.3
	c-27.3,21.7-54.4,43.6-81.8,65.1c-14.8,11.6-30.2,22.5-44.6,34.4c-5.2,4.3-8.7,3.4-13,0.1c-18.7-14.8-37.4-29.7-56.1-44.4
	c-23.2-18.3-46.6-36.3-69.8-54.7c-24.9-19.6-49.6-39.4-74.4-59.1c-27.5-21.8-54.9-43.7-82.4-65.6c-15.1-12-30.3-23.9-45.4-35.8
	c-4.3-3.4-0.6-5.3,1.5-7.3c17.8-17.2,35.9-34.3,53.5-51.7c29.3-28.9,58.3-58.1,87.5-87c10.8-10.7,21.6-21.4,33-31.4
	c5.5-4.8,4.6-7.9-0.3-11.7c-17.4-13.4-34.8-26.8-52.2-40.2c-23.7-18.2-47.4-36.4-71.1-54.5c-11.6-8.9-23-17.8-34.7-26.4
	c-2.2-1.6-3.6-3.3-4.5-5.7c0-64.6,0-129.3,0.1-193.9c13.4-13.5,29.3-24.1,43.8-36.3c21.5-18.1,43.5-35.5,65.6-52.8
	c34.2-26.6,67-54.8,101.8-80.7c21.5-16.1,41.8-33.9,62.4-51.2c6.6-5.6,11.7-5.8,18.7-0.1c35,28.3,70.3,56.2,105.5,84.2
	c36.1,28.8,72.3,57.6,108.3,86.5c9.3,7.5,18.3,15.4,27.8,22.8c3.5,2.7,3.4,4.3,0.5,7.2c-20.5,20.1-41,40.3-61.4,60.7
	c-3.8,3.8-6.1,2.1-9.4-0.5c-56.6-45.6-113.5-90.9-170-136.8c-7.6-6.2-12.1-6-19.8,0.2c-56,45.5-112.5,90.9-169.1,136.1
	c-5.8,4.6-8,9.4-7.9,16.8c0.4,27.5,0.4,55.1,0.1,82.6c-0.1,6.8,2.2,10.9,7.5,15c110.3,84.2,220.5,168.6,330.7,253
	c6.5,5,12.9,10.3,19.5,15.1c3.5,2.6,3.5,4.5,0.1,7.2c-23.5,18.7-47.1,37.3-70.4,56.2c-4.1,3.3-6.1,0.6-8.8-1.5
	c-39.9-31.1-80-62-119.7-93.3c-6.4-5.1-10.2-5.2-16.3,0.8c-33.8,33.2-69.6,64.4-102.9,98.2c-8.2,8.3-8.1,8.2,0.8,15.3
	c59.1,46.5,118.3,93,177.2,139.8c6.2,5,10,5.7,16.7,0.4c69.3-55.1,138.9-109.8,208.6-164.4c5.8-4.5,8.3-8.9,8-16.5
	c-0.7-25.9-0.7-51.9-0.3-77.8c0.1-8-3-12.6-9-17.2c-111-85-221.8-170.1-332.7-255.2c-1.2-1-2.5-2-3.7-3
	c-18.6-14.7-18.6-14.7-0.6-29.5c17.1-14.1,34.3-28,51.2-42.3c5.1-4.4,8.7-5.1,14.4-0.5c48.5,39.6,99.2,76.4,148.6,114.9
	c5.8,4.6,9.2,4.7,14.8-0.8c35.7-35.5,71.9-70.3,107.7-105.6c51.7-51,103.2-102.2,154.9-153.3c4.7-4.6,10-8.5,14.7-13.1
	c3.8-3.7,6-6.4-0.7-11.4c-12.9-9.9-24.4-21.6-36.2-32.9c-13.1-12.6-27.5-23.8-40-38.8c99.1-23.3,197.5-46.8,297.5-68.3
	c-12.5,58.2-24.5,114.4-36.5,170.7c-8.7,40.4-17.3,80.8-25.9,121.3c-0.5,2.5-0.2,5.7-2.9,6.6c-3.5,1.2-3.2-3-4.8-4.5
	c-17.4-15.4-31.2-34.2-47.4-50.8c-7.9-8.1-15.6-16.3-22.8-24.9c-4.5-5.3-7.2-4.4-11.8,0.1C838.3,283.3,798,323.6,757,363
	c-48.8,46.9-96.2,95.1-144.3,142.5c-8.6,8.5-10.7,7.3,1,16.2c44.4,34,88.5,68.3,132.8,102.5C746.4,687.6,746.5,750.9,746.5,814.2z"
	/>
<path class="st1" d="M560.1,543.5c-0.2,1.9-0.3,3.8-0.5,5.8C557.9,547.2,557.5,545.2,560.1,543.5z"/>
<path class="st1" d="M559.8,547.6c-0.4-0.8-0.9-1.6-1.3-2.4C559,546,559.4,546.8,559.8,547.6z"/>
</svg>
